<?xml version="1.0" encoding="utf-8"?>
<!-- Generator: Adobe Illustrator 24.1.1, SVG Export Plug-In . SVG Version: 6.00 Build 0)  -->
<svg version="1.1" id="katman_1" xmlns="http://www.w3.org/2000/svg" xmlns:xlink="http://www.w3.org/1999/xlink" x="0px" y="0px"
	 viewBox="0 0 1617.7 356.8" style="enable-background:new 0 0 1617.7 356.8;" xml:space="preserve">
<style type="text/css">
	.st0{fill:#1E5579;}
	.st1{fill:url(#SVGID_1_);}
	.st2{fill:url(#SVGID_2_);}
	.st3{fill:url(#SVGID_3_);}
	.st4{fill:url(#SVGID_4_);}
	.st5{fill:url(#SVGID_5_);}
	.st6{fill:url(#SVGID_6_);}
	.st7{fill:url(#SVGID_7_);}
</style>
<g>
	<g>
		<path class="st0" d="M581.6,166.2c0,38-28.5,61.7-74.1,61.7h-34.4v47.1h-39.5V104.2h73.9C553.1,104.2,581.6,127.9,581.6,166.2z
			 M541.6,166.2c0-18.8-12.2-29.8-36.3-29.8h-32.2v59.3h32.2C529.4,195.7,541.6,184.7,541.6,166.2z"/>
		<path class="st0" d="M684.3,141.8v35.1c-3.2-0.2-5.6-0.5-8.5-0.5c-21,0-34.9,11.5-34.9,36.6v61.9h-38V143.7h36.3V161
			C648.5,148.4,664.1,141.8,684.3,141.8z"/>
		<path class="st0" d="M702.4,159.7c0-11.9,9.5-21.2,23.7-21.2c14.1,0,23.7,8.8,23.7,20.5c0,12.7-9.5,21.9-23.7,21.9
			C711.9,180.9,702.4,171.7,702.4,159.7z"/>
		<rect x="707" y="192.7" class="st0" width="38" height="82.2"/>
		<path class="st0" d="M923.7,159.7c0-11.9,9.5-21.2,23.7-21.2c14.1,0,23.7,8.8,23.7,20.5c0,12.7-9.5,21.9-23.7,21.9
			C933.2,180.9,923.7,171.7,923.7,159.7z"/>
		<rect x="928.4" y="192.7" class="st0" width="38" height="82.2"/>
		<path class="st0" d="M910.6,143.7l-55.4,131.2H816l-55.1-131.2h39.3l36.3,89.3l37.6-89.3H910.6z"/>
		<path class="st0" d="M1111.6,200.1v74.9H1076v-16.3c-7.1,11.9-20.7,18.3-40,18.3c-30.7,0-49-17.1-49-39.7
			c0-23.2,16.3-39.3,56.3-39.3h30.2c0-16.3-9.8-25.8-30.2-25.8c-13.9,0-28.3,4.6-37.8,12.2l-13.7-26.6
			c14.4-10.2,35.6-15.8,56.6-15.8C1088.4,141.8,1111.6,160.3,1111.6,200.1z M1073.6,233.5v-13.4h-26.1c-17.8,0-23.4,6.6-23.4,15.4
			c0,9.5,8,15.8,21.5,15.8C1058.2,251.3,1069.2,245.4,1073.6,233.5z"/>
	</g>
	<path class="st0" d="M1294.3,103.8v171.1h-39.6v-70.2H1177v70.2h-39.6V103.8h39.6v67.5h77.7v-67.5H1294.3z"/>
	<path class="st0" d="M1451,143.4v131.5h-36.2v-15.6c-10,11.5-24.7,17.6-40.8,17.6c-33,0-56.2-18.6-56.2-59.2v-74.3h38.1v68.7
		c0,22,9.8,31.8,26.6,31.8c17.6,0,30.3-11.2,30.3-35.4v-65H1451z"/>
	<path class="st0" d="M1617.7,209.1c0,41.3-28.6,67.7-65.5,67.7c-17.6,0-31.8-5.6-41.3-17.1v15.2h-36.4V93.5h38.1v63.8
		c9.8-10.8,23.2-15.9,39.6-15.9C1589.1,141.4,1617.7,167.8,1617.7,209.1z M1579.1,209.1c0-22.7-14.4-36.4-33.5-36.4
		c-19.1,0-33.5,13.7-33.5,36.4c0,22.7,14.4,36.4,33.5,36.4C1564.7,245.6,1579.1,231.9,1579.1,209.1z"/>
</g>
<g>
	<g>
		<linearGradient id="SVGID_1_" gradientUnits="userSpaceOnUse" x1="1.818989e-12" y1="219.0391" x2="90.1269" y2="219.0391">
			<stop  offset="0" style="stop-color:#1E5579"/>
			<stop  offset="1" style="stop-color:#0D374E"/>
		</linearGradient>
		<polygon class="st1" points="43.7,132.1 90.1,306 0,176.6 		"/>
		<linearGradient id="SVGID_2_" gradientUnits="userSpaceOnUse" x1="280.5699" y1="219.0391" x2="370.6968" y2="219.0391">
			<stop  offset="0" style="stop-color:#1E5579"/>
			<stop  offset="1" style="stop-color:#0D374E"/>
		</linearGradient>
		<polygon class="st2" points="327,132.1 280.6,306 370.7,176.6 		"/>
		<linearGradient id="SVGID_3_" gradientUnits="userSpaceOnUse" x1="197.6786" y1="116.1384" x2="483.2489" y2="8.2271">
			<stop  offset="0" style="stop-color:#1E5579"/>
			<stop  offset="1" style="stop-color:#0D374E"/>
		</linearGradient>
		<polygon class="st3" points="322.6,0 190.1,116.9 232.3,172 319.8,114.2 		"/>
		<linearGradient id="SVGID_4_" gradientUnits="userSpaceOnUse" x1="190.1434" y1="153.5564" x2="322.6013" y2="153.5564">
			<stop  offset="0" style="stop-color:#1E5579"/>
			<stop  offset="1" style="stop-color:#0D374E"/>
		</linearGradient>
		<polygon class="st4" points="232.3,172 248.3,192.9 319.8,114.6 319.8,114.2 		"/>
		<g>
			
				<linearGradient id="SVGID_5_" gradientUnits="userSpaceOnUse" x1="1902.3618" y1="116.1384" x2="2187.9321" y2="8.2271" gradientTransform="matrix(-1 0 0 1 2075.3801 0)">
				<stop  offset="0" style="stop-color:#1E5579"/>
				<stop  offset="1" style="stop-color:#0D374E"/>
			</linearGradient>
			<polygon class="st5" points="48.1,0 180.6,116.9 138.4,172 50.9,114.2 			"/>
			
				<linearGradient id="SVGID_6_" gradientUnits="userSpaceOnUse" x1="1894.8267" y1="153.5564" x2="2027.2845" y2="153.5564" gradientTransform="matrix(-1 0 0 1 2075.3801 0)">
				<stop  offset="0" style="stop-color:#1E5579"/>
				<stop  offset="1" style="stop-color:#0D374E"/>
			</linearGradient>
			<polygon class="st6" points="138.4,172 122.4,192.9 50.9,114.6 50.9,114.2 			"/>
		</g>
	</g>
	<linearGradient id="SVGID_7_" gradientUnits="userSpaceOnUse" x1="146.4173" y1="288.1765" x2="224.2795" y2="288.1765">
		<stop  offset="0" style="stop-color:#1E5579"/>
		<stop  offset="1" style="stop-color:#0D374E"/>
	</linearGradient>
	<polygon class="st7" points="185.3,356.8 146.4,219.6 224.3,219.6 	"/>
</g>
</svg>
